<?xml version="1.0" encoding="UTF-8"?>
<!DOCTYPE svg PUBLIC "-//W3C//DTD SVG 1.1//EN" "http://www.w3.org/Graphics/SVG/1.1/DTD/svg11.dtd">
<!-- Creator: CorelDRAW 2020 (64-Bit Evaluation Version) -->
<svg xmlns="http://www.w3.org/2000/svg" xml:space="preserve" width="18.725mm" height="16.6608mm" version="1.1" style="shape-rendering:geometricPrecision; text-rendering:geometricPrecision; image-rendering:optimizeQuality; fill-rule:evenodd; clip-rule:evenodd"
viewBox="0 0 293.46 261.11"
 xmlns:xlink="http://www.w3.org/1999/xlink"
 xmlns:xodm="http://www.corel.com/coreldraw/odm/2003">
 <defs>
  <style type="text/css">
   <![CDATA[
    .fil0 {fill:#373435}
   ]]>
  </style>
 </defs>
 <g id="Layer_x0020_1">
  <metadata id="CorelCorpID_0Corel-Layer"/>
  <path class="fil0" d="M120.2 44.28c0,0 -71.87,-1.38 -79.13,1.21 -7.26,2.59 -23.32,13.82 -26.61,27.3 -3.28,13.48 -22.81,59.6 -10.37,104.53 12.44,44.92 28.51,54.08 42.33,69.28 13.82,15.2 21.94,14.51 21.94,14.51l33.35 -11.92c0,0 -8.64,0.17 -21.08,-10.37 -12.44,-10.54 -27.64,-40.08 -28.34,-50.97 -0.69,-10.89 8.29,-6.91 8.29,-6.91 0,0 4.66,3.97 5.01,8.47 0.35,4.49 6.05,32.83 28.17,42.85 22.12,10.02 38.36,4.49 70.15,4.84 31.79,0.35 31.45,-0.69 44.23,-7.26 12.79,-6.57 14.86,-12.44 29.02,-20.22 14.17,-7.77 13.31,-9.85 27.82,-11.06 14.51,-1.21 16.93,-7.26 16.93,-7.26 0,0 -8.29,-0.69 -12.09,0.34 -3.8,1.04 -15.03,1.04 -19.7,-3.63 -4.66,-4.67 -5.18,-11.92 -14.34,-12.79 -9.16,-0.86 -15.21,-2.94 -14.69,-6.22 0.52,-3.28 4.32,-8.12 14.34,-6.74 10.02,1.38 11.75,5.36 15.55,10.54 3.8,5.18 6.57,7.26 15.9,7.26 9.33,0 20.91,-0.18 22.81,-6.22 1.9,-6.05 2.68,-18.23 1.73,-17.71 -0.95,0.52 -1.38,3.97 -3.54,4.49 -2.16,0.52 -6.05,0.09 -6.05,-2.59 0,-2.68 0.52,-10.71 4.23,-10.54 3.71,0.17 5.27,6.74 5.27,6.74 0,0 2.42,-1.29 2.07,-5.36 -0.34,-4.06 0.43,-9.42 -3.63,-10.19 -4.06,-0.78 -7,-1.9 -8.04,1.47 -1.04,3.37 -4.92,12.1 -4.75,16.85 0.17,4.75 -5.7,7.51 -8.81,5.27 -3.11,-2.25 -4.75,-5.96 -2.94,-8.98 1.81,-3.02 6.57,-11.06 6.57,-11.06 0,0 -14.51,-8.55 -30.06,-12.35 -15.55,-3.8 -36.8,-13.65 -37.83,-31.96 -1.04,-18.31 -12.27,-26.87 -16.68,-32.05 -4.41,-5.18 -8.12,-9.76 -10.54,-7.43 -2.42,2.33 -9.67,11.49 -15.89,6.48 -6.22,-5.01 2.42,-9.16 4.84,-11.23 2.42,-2.07 12.09,-5.7 2.94,-22.63 -9.16,-16.93 -14.51,-18.14 -17.28,-22.98 -2.76,-4.84 -7.78,-11.92 -9.33,-5.53 -1.55,6.39 -3.28,9.85 -2.25,19.7 1.04,9.85 -0.17,15.89 -5.87,22.63 -5.7,6.74 -19.35,21.25 -19.17,32.65 0.17,11.4 3.28,17.8 6.74,19.35 3.45,1.55 3.45,8.81 0.34,10.19 -3.11,1.38 -8.98,0.86 -13.3,-5.53 -4.32,-6.39 -11.58,-15.89 -7.77,-26.26 3.8,-10.37 11.75,-24.36 19.5,-31.01zm58.42 67.82c-3.28,-0.35 -8.99,2.07 -8.81,6.74 0.17,4.67 4.15,7.26 7.26,7.26 3.11,0 7.77,-2.77 7.95,-6.57 0.17,-3.8 -2.59,-6.57 -6.39,-7.43zm18.49 4.49c0,0 -4.49,-1.38 -5.01,3.97 -0.52,5.36 1.38,9.16 -2.76,10.88 -4.15,1.73 -3.97,3.63 -9.68,3.63 -5.7,0 -10.54,1.38 -8.64,4.32 1.9,2.94 13.3,3.97 18.49,1.04 5.18,-2.94 7.78,-11.4 9.16,-15.03 1.38,-3.63 2.94,-8.81 -1.56,-8.81zm-27.3 -13.65c-8.29,1.38 -17.62,3.97 -20.39,8.47 -2.76,4.49 -1.73,6.74 -1.55,11.75 0.17,5.01 -1.9,12.44 -6.57,6.22 -4.67,-6.22 -3.63,-19.35 3.8,-24.19 7.43,-4.84 17.8,-9.33 22.81,-8.64 5.01,0.69 6.22,5.36 1.9,6.39z"/>
 </g>
</svg>
